<svg id="Layer_1" data-name="Layer 1" xmlns="http://www.w3.org/2000/svg" viewBox="0 0 680 680"><rect x="568.84" y="77.52" width="68.29" height="63.64" rx="7.9" transform="translate(-9.38 85.71) rotate(-8.07)" style="fill:#29abe2"/><rect x="581.04" y="163.58" width="68.29" height="63.64" rx="7.9" transform="translate(-21.34 88.28) rotate(-8.07)" style="fill:#c1272d"/><rect x="87.48" y="59.54" width="423.74" height="560.33" rx="21.08" transform="translate(-88.95 106.83) rotate(-17.66)" style="fill:none;stroke:#29abe2;stroke-miterlimit:10;stroke-width:9px"/><path d="M630.9,599.6,295.52,667.44A32.71,32.71,0,0,1,256.86,642L152.07,157.36a32.72,32.72,0,0,1,25.42-38.66L540.81,26a32.72,32.72,0,0,1,38.66,25.41L656.32,561A32.71,32.71,0,0,1,630.9,599.6Z" style="fill:#fbae17"/><rect x="111.58" y="177.71" width="100.89" height="32.6" rx="10.5" transform="translate(-35.9 36.79) rotate(-11.67)" style="fill:#4d4d4d"/><rect x="131.41" y="281.39" width="100.89" height="32.6" rx="10.5" transform="translate(-56.47 42.95) rotate(-11.67)" style="fill:#4d4d4d"/><rect x="152.77" y="384.76" width="100.89" height="32.6" rx="10.5" transform="translate(-76.94 49.41) rotate(-11.67)" style="fill:#4d4d4d"/><rect x="174.12" y="488.12" width="100.89" height="32.6" rx="10.5" transform="translate(-97.41 55.87) rotate(-11.67)" style="fill:#4d4d4d"/><rect x="193.96" y="591.8" width="100.89" height="32.6" rx="10.5" transform="translate(-117.98 62.03) rotate(-11.67)" style="fill:#4d4d4d"/><path d="M436.1,475.29c-8.2-1.08-16-2.9-21.47-10-2.22-2.89-5.38-2.21-8.44-1.93-8.6.78-13.54-3.34-14.88-11.7-1.8-11.23-1.55-24-5-33.44-4.83-13.13-9.31-27.47-18.1-39.34a159.36,159.36,0,0,0-15.81-18.49c-22.7-22.52-29.9-54.53-17.84-83.24,12.42-29.59,35.2-46.5,67.26-47.76,33.8-1.32,58.65,14.68,73,45.33,9,19.27,9.25,39.53.89,59.25-7.18,16.93-7.92,34.25-8.66,52.44-.71,17.29,7.62,31.54,9.06,47.69.74,8.32-1,14-9.17,16.72-2.91,1-6.18,1.53-7,5.05-2.11,8.77-9,13.18-15.75,17.75Zm-9.64-67.2c5.64-1.16,11.29-2.24,16.91-3.51C455,402,459.53,396.88,458,385.37c-2.58-19.16,1.42-36.82,8.65-54.41a66.68,66.68,0,0,0-28.41-83.64c-28.52-16.33-65.69-8.87-85.89,17.25-20.77,26.86-18.14,64.32,6.5,88.85,13.42,13.35,24.13,28.15,29.41,46.69,3,10.42,9.4,13.63,20.3,11.65C414.54,410.67,420.49,409.32,426.46,408.09Zm-29.5,17c.18.85.35,1.7.53,2.55l63.16-13.05-.52-2.55Zm68.91,15-.76-2.38-62.86,13,.51,2.43Z" style="fill:#333"/><path d="M496.63,327c10.84,3.28,22.86,6.69,34.17,12.14,2,.94,2.47,3.2,1.61,5.34-1,2.53-3.12,3.89-5.67,3.08q-16.46-5.25-32.76-10.93c-2.4-.84-3.56-3.08-3-5.8C491.46,328.51,493.18,327.59,496.63,327Z" style="fill:#333"/><path d="M337.12,364.25c.65,3.16-.79,5.06-2.58,6.68q-10.92,9.92-21.94,19.71c-2.67,2.37-5.79,4.33-8.88,1s-.63-6.33,1.92-8.67c7.23-6.66,14.5-13.29,21.94-19.7C331.06,360.25,334.77,359.14,337.12,364.25Z" style="fill:#333"/><path d="M387.21,195.1c1,5,2.16,9.88,3,14.86.54,3.09.54,6.37-3.36,7.33-3.25.8-5.08-1.46-6-4.15a127,127,0,0,1-6.49-31.56c-.21-2.85.79-5.53,4.11-6s4.89,2,5.56,4.7c1.2,4.9,2.09,9.88,3.11,14.83Z" style="fill:#333"/><path d="M346.43,230.87c.79,3.89.31,5.75-1.55,7.09a3.82,3.82,0,0,1-4.74.06c-9.33-7.88-17-17.33-24.47-26.92-1.37-1.75-.66-3.94.84-5.55s3.82-2.14,5.52-.8C331.91,212.55,339,222.85,346.43,230.87Z" style="fill:#333"/><path d="M445.13,178.21c3.68.15,5.57,2.78,4.39,6.69-3.11,10.34-6.57,20.58-10.11,30.78-.91,2.64-2.85,4.84-6.19,3.77-3.15-1-4.12-3.76-3.27-6.52,3.17-10.32,6.6-20.57,10.1-30.79A5.66,5.66,0,0,1,445.13,178.21Z" style="fill:#333"/><path d="M319.62,272.72c.38,4.73-2.34,6.93-6.11,5.82-10.93-3.24-21.71-7-32.45-10.87a4.4,4.4,0,0,1-2.73-5.8c.68-2.17,2.5-3.66,4.54-3.21a153.42,153.42,0,0,1,35.18,11.77C318.81,270.81,319.16,272,319.62,272.72Z" style="fill:#333"/><path d="M478.78,244.72c-3.73,1.15-5.67.94-7-.93-1.6-2.2-1.49-4.73.38-6.45q12.6-11.57,25.54-22.73a4.49,4.49,0,0,1,6.41.35c1.66,1.63,2,3.82.65,5.5C496.93,230.25,486.59,237.23,478.78,244.72Z" style="fill:#333"/><path d="M515.51,284.92c-5,1-9.91,2.14-14.9,3.05-3.18.59-6.45.41-7.28-3.47s2-5.81,5.08-6.41c10.58-2.08,21.23-3.86,31.89-5.53a4.14,4.14,0,0,1,5,3.86c.34,2.83-1.5,4.47-4,5.06-5.25,1.25-10.57,2.23-15.86,3.33Z" style="fill:#333"/><path d="M295.78,330.26c-5.28,1.09-10.54,2.33-15.85,3.21-2.89.48-5.55-.43-6-3.83-.38-2.77,1.47-4.59,3.93-5.08,10.56-2.07,20.63-6.34,31.51-6.95,2.87-.16,5.71.22,6.42,3.47.86,3.91-2,5.4-5.14,6.13-4.92,1.13-9.89,2.07-14.84,3.1Z" style="fill:#333"/><polygon points="621 554 324.95 615.16 337 522 588 453 621 554" style="fill:#8c6239;opacity:0.38"/><path d="M352.32,593.77A102.85,102.85,0,0,1,397.68,542l-7.52-4.31a101.51,101.51,0,0,1-4.85,29.23c-1.46,4.6,5.11,8.72,8.36,4.87a98,98,0,0,1,53.14-32.58l-6.15-3.49a21.07,21.07,0,0,1-.61,11.51c-1.16,3.62,2.58,7.22,6.15,6.15l23-6.87c2.42-.72,21.62-7.49,21.6-3.71,0,4.08,5.65,6.92,8.53,3.53a177.88,177.88,0,0,1,44.26-37.56c5.52-3.3.49-12-5.05-8.63a185.94,185.94,0,0,0-46.28,39.12l8.54,3.54a11.17,11.17,0,0,0-6.47-10.25c-4.73-2.36-10.12-.94-14.89.47-12,3.54-23.95,7.15-35.92,10.72l6.15,6.15A31.35,31.35,0,0,0,450.3,533c-.61-2.71-3.62-4.08-6.15-3.49a106.87,106.87,0,0,0-57.55,35.15l8.36,4.86a111.36,111.36,0,0,0,5.2-31.89,5.05,5.05,0,0,0-7.53-4.32,113.55,113.55,0,0,0-49.95,57.78c-2.35,6,7.32,8.6,9.64,2.66Z" style="fill:#8c6239"/><path d="M553.3,502.6c6.44,0,6.45-10,0-10s-6.44,10,0,10Z" style="fill:#8c6239"/><path d="M400.65,585.17a603.83,603.83,0,0,1,142.47-34.26c6.32-.72,6.4-10.73,0-10A614.51,614.51,0,0,0,398,575.53c-6,2.23-3.39,11.9,2.66,9.64Z" style="fill:#8c6239"/></svg>