<svg id="Layer_1" data-name="Layer 1" xmlns="http://www.w3.org/2000/svg" viewBox="0 0 680 680"><circle cx="331.25" cy="370.2" r="245.3" style="fill:#d4fcff;opacity:0.5"/><circle cx="521.61" cy="472.63" r="146.53" style="fill:#d4fcff;opacity:0.5"/><path d="M306.22,176.74v8.85c-.2,1-.47,2-.59,2.95-3.1,25.21-25.09,45.51-50.42,46.26-10.86.31-21.74.16-32.62.17q-74.51,0-149,0c-21.06,0-36.62-9.36-45.83-28.33-2.47-5.1-3.2-11-4.73-16.61v-8.3a13,13,0,0,0,.55-1.81c3.36-20.34,14.8-33.85,34.4-40.25,3.88-1.27,8-1.71,12.25-2.58a59.32,59.32,0,0,1-2.45-29.59A58.53,58.53,0,0,1,80.29,80.21a57.11,57.11,0,0,1,24.19-17.35,56.35,56.35,0,0,1,36.85-1.61c18.88,5.59,31.74,17.92,39.08,36.24,13-5.44,25.73-5.49,38.13.77s20,16.7,23.26,30.31a20.17,20.17,0,0,0,2.08-.12,53.22,53.22,0,0,1,59.05,35C304.45,167.7,305.15,172.29,306.22,176.74Z" style="fill:#e6e6e6;opacity:0.5"/><path d="M390.19,74.65c30.64,0,61.28-.15,91.91.08,9.43.07,16.27-3.41,19-12.45,2.93-9.74-3.58-16.73-15.79-16.87-22.36-.28-44.73-.1-67.1-.09-5.35,0-10.63.12-15.66-2.42s-6.79-6.57-6.2-11.95c.64-5.87,4.19-8.61,9.79-8.62,29.17,0,58.4-1,87.5.53C511.85,23.83,525.76,43,524.7,61a36,36,0,0,1-36.38,34.24c-57.87.17-115.73.07-173.6.08-3.89,0-7.8-.22-11.66.13-6.87.61-12.55,2.84-11.92,11.39.59,7.92,6.18,8.85,12.49,8.84q33.56,0,67.1,0c3.4,0,6.89-.28,10.19.35,6.22,1.18,11.23,4.64,11.13,11.47a10.46,10.46,0,0,1-10.29,10.56c-29.57.57-59.33,3.49-88.64-1.4A30.23,30.23,0,0,1,268,102.84c2.3-17,15.15-28,33.24-28.14C330.87,74.55,360.53,74.66,390.19,74.65Z" style="fill:#a2ecfe;opacity:0.5"/><path d="M136.19,525.65c30.64,0,61.28-.15,91.91.08,9.43.07,16.27-3.41,19-12.45,2.93-9.74-3.58-16.73-15.79-16.87-22.36-.28-44.73-.1-67.1-.09-5.35,0-10.63.12-15.66-2.42s-6.79-6.57-6.2-11.95c.64-5.87,4.19-8.61,9.79-8.62,29.17,0,58.4-1,87.5.53,18.21,1,32.12,20.12,31.06,38.18a36,36,0,0,1-36.38,34.24c-57.87.17-115.73.07-173.6.08-3.89,0-7.8-.22-11.66.13-6.87.61-12.55,2.84-11.92,11.39.59,7.92,6.18,8.85,12.49,8.84q33.56,0,67.1,0c3.4,0,6.89-.28,10.19.35,6.22,1.18,11.23,4.64,11.13,11.47a10.46,10.46,0,0,1-10.29,10.56c-29.57.57-59.33,3.49-88.64-1.4A30.23,30.23,0,0,1,14,553.84c2.3-17,15.15-28.05,33.24-28.14C76.87,525.55,106.53,525.66,136.19,525.65Z" style="fill:#a2ecfe;opacity:0.5"/><path d="M80.81,263.39l8.58,1.87-1.22,5.64c3.84-.25,7.23-.06,10.43-.75a35.47,35.47,0,0,1,30.17,6.54c2.64,2,5.82,3.23,9.13,5l1.2-5.53L148,278.1c-.7,4.12-1.59,8.06-4.13,11.37-1.94,2.51-3.95,2.22-5.42-.6a3,3,0,0,0-1.05-1.29c-8.38-4.2-16.4-1.1-19.84,7.64-1.61,4.08-1.61,4.08-5.93,3.15-2.56-.55-5.11-1.19-7.69-1.65-2.3-.41-3.14-1.62-2.81-3.92a15.16,15.16,0,0,0-2.38-10.9c-1.46-2.21-3.26-3.8-6-4.14-1.75-.21-3.46-.85-5.22-1a4.14,4.14,0,0,0-2.66.64c-2.42,1.76-4.25,1.21-5.11-1.72C78.9,272.93,79.34,267.79,80.81,263.39Z" style="fill:#3d4853"/><path d="M85.57,261.51c-4.54-1-9.08-2-13.61-3-2.7-.6-3.93-2.1-3.44-4.06s2.17-2.68,4.7-2.13l27.48,6c2.49.55,3.71,2,3.33,3.92s-2,2.8-4.59,2.27C94.81,263.54,90.19,262.51,85.57,261.51Z" style="fill:#307cc3"/><path d="M144.08,274.23c-4.54-1-9.08-2-13.62-3-2.55-.58-3.75-2-3.39-3.89s2.18-2.84,4.83-2.27L159.13,271c2.67.59,3.93,2.08,3.48,4.05s-2.12,2.71-4.92,2.11C153.15,276.21,148.62,275.21,144.08,274.23Z" style="fill:#307cc3"/><path d="M91.83,253.74l-8.52-1.85c.82-2.83,2.66-4.08,5.15-3.57S92.11,250.65,91.83,253.74Z" style="fill:#3d4853"/><path d="M150.45,266.55l-8.28-1.8a3.77,3.77,0,0,1,4.07-3.81C149.06,261,150.66,263.05,150.45,266.55Z" style="fill:#3d4853"/><path d="M542.55,381.68l8.48-2.3,1.5,5.58c3.3-2,6.39-3.38,8.92-5.47a35.47,35.47,0,0,1,29.8-8.08c3.25.54,6.65.19,10.41.25l-1.48-5.47,8.77-2.37c1.27,4,2.3,7.89,1.56,12-.56,3.13-2.48,3.8-5.09,2a2.94,2.94,0,0,0-1.52-.66c-9.38.13-15.06,6.57-14.1,15.91.45,4.37.45,4.37-3.81,5.53-2.53.69-5.09,1.29-7.59,2.07-2.23.69-3.53,0-4.29-2.18a15.25,15.25,0,0,0-7.13-8.59,8.29,8.29,0,0,0-7.28-.89c-1.66.62-3.46.84-5.11,1.48a4.09,4.09,0,0,0-2.07,1.79c-1.35,2.68-3.22,3-5.33.83C545.24,391,543.26,386.26,542.55,381.68Z" style="fill:#3d4853"/><path d="M545.91,377.82c-4.49,1.21-9,2.44-13.46,3.63-2.67.7-4.46-.06-4.92-2s.69-3.37,3.19-4.05q13.57-3.69,27.15-7.34c2.47-.67,4.22.08,4.76,1.94s-.53,3.43-3,4.13C555,375.37,550.47,376.58,545.91,377.82Z" style="fill:#307cc3"/><path d="M603.7,362.18c-4.48,1.21-9,2.45-13.45,3.63-2.54.67-4.25,0-4.8-1.89s.62-3.52,3.24-4.23q13.45-3.66,26.9-7.28c2.64-.71,4.45,0,4.95,2s-.63,3.38-3.39,4.14C612.67,359.77,608.18,361,603.7,362.18Z" style="fill:#307cc3"/><path d="M547.89,368l-8.42,2.28c-.57-2.89.49-4.85,2.93-5.54S546.71,365.17,547.89,368Z" style="fill:#3d4853"/><path d="M605.83,352.43l-8.18,2.21a3.75,3.75,0,0,1,1.86-5.25C602.06,348.18,604.4,349.23,605.83,352.43Z" style="fill:#3d4853"/><g style="opacity:0.51"><path d="M382.46,479.66c-47-6.59-88.19-32.7-118.13-79.05-5.18-8-4.2-16.1,2.34-21.43,6.23-5.06,13.71-3.52,19.05,4.71,17.7,27.26,40.31,47.85,69.47,58.59C408.05,462,456.87,452.33,501,413.2c2.63-2.33,5.08-4.91,7.72-7.23,6.54-5.76,13.49-5.53,18.59.51S532,420.32,526,426.82A170.79,170.79,0,0,1,503.45,447C469.76,472.46,427.71,484.38,382.46,479.66Z" style="fill:#00b3bc"/><path d="M496.74,379.26a18.89,18.89,0,0,1-5.11,9.72c-52.61,56-140.93,48.95-183.57-14.63-1.17-1.75-2.29-3.57-3.32-5.44-4.37-7.82-3-15.84,3.5-20.55,6.08-4.42,13.44-2.84,18.19,4.32a124,124,0,0,0,10.06,13.49c34.92,39.71,91.69,43,131.51,7.63,3-2.65,5.74-5.64,8.95-7.88,4.51-3.16,9.31-3.39,13.9-.1S497.1,373.78,496.74,379.26Z" style="fill:#00a4bc"/><path d="M395.08,372.27C377.43,370.18,360,359.4,347,340.36c-5.79-8.47-5-16.6,1.59-22,6.32-5.17,13.29-3.61,19.12,4.27,19.36,26.17,48.86,29.13,72.63,7.31,6.93-6.37,14.41-6.29,19.56.19,4.78,6,4.11,14.41-2.48,20.87C440.76,367.31,421.37,374.83,395.08,372.27Z" style="fill:#0071bc"/></g><g style="opacity:0.26"><path d="M161.9,351.26c-10.61,8-23.91,11-39,7.73-2.6-.56-4-2.35-3.77-4.7s2-3.4,4.7-2.83c8.89,1.89,17.44,1.49,25.33-2.15,14.31-6.61,22.06-18.17,23-34.64.06-1,0-2,.1-3,.16-2.43,1.58-3.76,3.78-3.58a4.11,4.11,0,0,1,3.75,4.29,46.63,46.63,0,0,1-.47,8.45A47.17,47.17,0,0,1,161.9,351.26Z" style="fill:#00b3bc"/><path d="M164.64,308.8a5.33,5.33,0,0,1,.92,2.94,32.66,32.66,0,0,1-39.21,33.41,17.43,17.43,0,0,1-1.73-.42c-2.41-.68-3.72-2.54-3.37-4.76s2.09-3.22,4.45-2.74a33.56,33.56,0,0,0,4.66.68c14.76.95,26.64-9.63,27.52-24.5a28,28,0,0,1,.21-3.33,3.13,3.13,0,0,1,2.73-2.77A4,4,0,0,1,164.64,308.8Z" style="fill:#00a4bc"/><path d="M143.15,327.53c-3.9,3.07-9.49,4.4-15.83,3.2-2.82-.53-4.27-2.29-4-4.66s1.92-3.35,4.63-2.94c9,1.35,15.43-3.9,15.81-12.92.11-2.63,1.61-4.1,3.91-3.83,2.14.25,3.66,2,3.64,4.62C151.21,317.51,148.86,322.83,143.15,327.53Z" style="fill:#0071bc"/></g><path d="M137.38,547.7c-36.07-.45-68.06-32.54-67.64-67.87.44-37.17,32.49-69.05,68.87-68.49,36.1.56,67.56,32.14,67.66,67.91C206.37,515.82,173.82,548.16,137.38,547.7Z" style="fill:#fbae17"/><path d="M416.74,680c-45-46.35-84.71-90.9-128.42-131.07C247.89,511.78,187.45,505.6,145.65,539,93.8,580.39,48.26,629.7,0,675.6L3.05,680Z" style="fill:#3bd291"/><path d="M589,674.91c-41.58-42.85-79.66-85.85-121.77-124.46-43.94-40.27-108.93-38.89-150.8-5.88,21.47,24.27,47,49.12,69.27,73.67Q409.21,644.17,434,669c3.9,3.91,10,7.89,15.14,8,44.12.59,88.25.3,132.38.2C582.86,677.11,584.24,676.34,589,674.91Z" style="fill:#2f9a7a"/><path d="M167.15,620.22c-2.78,6.68-4.46,14.73-13.33,15.54-6,.55-9.92-4-9.47-9.75.6-7.51,3.61-14.68,12.59-15.32C162.83,610.27,166.18,614.28,167.15,620.22Z" style="fill:#2eb47b"/><path d="M215.6,585.56c-9.48-.37-11.62-7.54-12.74-14.24s3.89-11,10-11c9.12,0,10.21,8.45,11.56,14.88C225.68,581.36,220.81,584.21,215.6,585.56Z" style="fill:#61eca5"/><path d="M256.39,570.65c-2.25,6.81-4.11,14.58-13.5,14.67-6.42.06-9.58-5.51-8.77-10.64,1.06-6.72,4.17-14,12.57-14.46C252.82,559.86,255.58,564.54,256.39,570.65Z" style="fill:#61eca5"/><path d="M133.63,623.58c-.11,6.94-2.77,12.49-9.33,12.13-7.53-.42-10.3-7.46-11.19-13.89s3.18-11,9.67-11.11C131.42,610.56,132.16,617.9,133.63,623.58Z" style="fill:#2eb47b"/><path d="M499.6,611.55c-2.78,6.69-4.46,14.74-13.33,15.55-6,.54-9.92-4-9.47-9.75.6-7.51,3.61-14.68,12.59-15.32C495.28,601.61,498.63,605.62,499.6,611.55Z" style="fill:#2eb47b"/><path d="M466.08,614.92c-.11,6.94-2.77,12.49-9.33,12.12-7.53-.41-10.3-7.45-11.19-13.88s3.17-11,9.67-11.11C463.87,601.9,464.61,609.23,466.08,614.92Z" style="fill:#2eb47b"/><path d="M436.79,557.41c-2.78,6.68-4.46,14.74-13.32,15.54-6,.55-9.93-4-9.47-9.74.59-7.52,3.6-14.68,12.58-15.32C432.47,547.47,435.82,551.47,436.79,557.41Z" style="fill:#2eb47b"/><path d="M403.27,560.77c-.1,7-2.77,12.49-9.33,12.13-7.53-.42-10.3-7.46-11.19-13.89s3.18-11,9.67-11.11C401.06,547.75,401.8,555.09,403.27,560.77Z" style="fill:#2eb47b"/><path d="M305.76,641.88c-2.78,6.68-4.46,14.73-13.32,15.54-6,.54-9.93-4-9.47-9.75.59-7.51,3.6-14.68,12.58-15.32C301.44,631.93,304.79,635.94,305.76,641.88Z" style="fill:#72b47b"/><path d="M272.24,645.24c-.1,6.94-2.77,12.49-9.33,12.12-7.53-.41-10.3-7.45-11.19-13.88s3.18-11,9.67-11.11C270,632.22,270.77,639.55,272.24,645.24Z" style="fill:#72b47b"/><path d="M235.41,161.77l45-4.55,3,29.64c18.42-7.36,35.33-11.84,49.9-20.33C384,137,436.14,131.61,491.69,150.48c16.08,5.46,33.66,6.51,52.72,10l-2.93-29,46.6-4.7c3.13,21.3,5,42-2.15,62.31-5.48,15.44-15.78,17.19-27.52,5.73-2-2-4.59-4.28-7.17-4.67-47.8-7.21-82.12,20.76-85.06,69.09-1.38,22.58-1.37,22.59-24,24.9-13.45,1.37-27,2.32-40.35,4.17-11.89,1.64-17.93-2.94-20-14.71-3.5-20-12.87-36.81-29-49.63-10.73-8.5-22.08-13.41-36.25-10.64-8.95,1.75-18.34,1.35-27.26,3.2-4.39.91-9.42,3.83-12,7.4-9.09,12.49-18.89,12.7-27.78-.3C241.25,211.55,235.21,185.69,235.41,161.77Z" style="fill:#3d4853"/><path d="M255.74,145c-23.82,2.4-47.62,4.9-71.45,7.17-14.2,1.35-22.63-4-23.33-14.44-.67-10,6.35-16.56,19.63-17.92q72.09-7.38,144.19-14.54c13.12-1.31,21.42,4,22.58,13.89,1.18,10.11-5.58,17-18.88,18.44C304.25,140.18,280,142.5,255.74,145Z" style="fill:#307cc3"/><path d="M562.76,114c-23.82,2.4-47.63,4.91-71.46,7.16-13.44,1.27-21.55-3.78-22.8-13.64-1.31-10.28,6.1-17.39,20-18.81Q560,81.38,631.43,74.27c14-1.4,22.59,3.92,23.48,14.28s-6,16.65-20.71,18.19C610.4,109.25,586.57,111.58,562.76,114Z" style="fill:#00a4bc"/><path d="M274,96.92l-44.71,4.51c-.49-15.16,6.54-24.25,19.56-25.71S270.47,81.31,274,96.92Z" style="fill:#3d4853"/><path d="M581.77,66.2l-43.48,4.37c-3.57-11.1,2.35-21.81,13.9-25.14C566.16,41.4,577.2,48.71,581.77,66.2Z" style="fill:#3d4853"/><path d="M422.7,200.05c-13.4,1.36-26.79,2.81-40.21,4-8,.72-13-5-13.86-15.39-.82-10,2.88-16.21,10.35-17q40.56-4.19,81.14-8.18c7.38-.72,12.32,4.88,13.41,14.82,1.11,10.11-2.42,16.68-9.9,17.53C450,197.42,436.34,198.67,422.7,200.05Z" style="fill:none;stroke:#fff;stroke-miterlimit:10;stroke-width:5px"/><path d="M415.46,209.36c-13.41,1.36-26.8,2.81-40.21,4-8,.73-13-5-13.86-15.39-.82-10,2.88-16.21,10.35-17q40.56-4.2,81.14-8.19c7.38-.72,12.32,4.89,13.41,14.83,1.11,10.11-2.43,16.67-9.91,17.53C442.76,206.74,429.1,208,415.46,209.36Z" style="fill:#307cc3"/><path d="M421.75,248.68c-6.4.58-12.79,1.23-19.2,1.73-3.61.28-5.93-2.8-6.51-8.37-.6-5.8,1.23-9.54,5-9.9q19.2-1.81,38.39-3.52c3.77-.34,6.22,2.92,6.71,8.75s-1.23,9.13-5.17,9.53C434.55,247.55,428.15,248.09,421.75,248.68Z" style="fill:#00a4bc"/><ellipse cx="390.44" cy="200.51" rx="7.76" ry="14.49" transform="translate(-13.83 29.58) rotate(-4.26)" style="fill:none;stroke:#fff;stroke-miterlimit:10;stroke-width:5px"/><ellipse cx="433.9" cy="196.37" rx="7.76" ry="14.49" transform="translate(-13.4 32.8) rotate(-4.26)" style="fill:none;stroke:#fff;stroke-miterlimit:10;stroke-width:5px"/></svg>